<svg xmlns="http://www.w3.org/2000/svg" xmlns:xlink="http://www.w3.org/1999/xlink" aria-hidden="true" role="img" width="1em" height="1em" preserveAspectRatio="xMidYMid meet" viewBox="0 0 24 24"><g fill="none"><path d="M14 7c0 2.21 1.644 4 4 4s4-1.79 4-4s-1.644-4-4-4s-4 1.79-4 4z" stroke="currentColor" stroke-width="2"/><path d="M10 7c0 2.21-1.644 4-4 4S2 9.21 2 7s1.644-4 4-4s4 1.79 4 4z" stroke="currentColor" stroke-width="2"/><path d="M14 7v12a2 2 0 0 0 2 2v0a2 2 0 0 0 2-2v-8" stroke="currentColor" stroke-width="2" stroke-linecap="round"/><path d="M14 17h4" stroke="currentColor" stroke-width="2"/><path d="M6 17h4" stroke="currentColor" stroke-width="2"/><path d="M10 7v12a2 2 0 0 1-2 2v0a2 2 0 0 1-2-2v-8" stroke="currentColor" stroke-width="2" stroke-linecap="round"/><path d="M20 4v0a5.408 5.408 0 0 0 0 6v0" stroke="currentColor" stroke-width="2"/><path d="M4 4v0a5.408 5.408 0 0 1 0 6v0" stroke="currentColor" stroke-width="2"/></g></svg>